PathFileType	4	(X/Y/Z)	E:\3-PhD\Data\MocapData\ElaboratedData\009\pre\dynamicElaborations\RunA3\RunA3.trc
DataRate	CameraRate	NumFrames	NumMarkers	Units	OrigDataRate	DataStartFrame
200	200	6	54	mm	200	570
Frame#	Time	FHD			LBHD			RBHD			C7			T10			CLAV			LSHO			LUUPA			LMUPA			LDUPA			LLEP			LMEP			LRAD			LUL			LRFIN			RSHO			RUPA1			RMUPA			RDUPA			RLEP			RMEP			RRAD			RUL			RUFIN			RASI			USACR			LSACR			RSACR			LTHI1			LTHI2			LTHI3			LTHI4			LTIB1			LTIB2			LTIB3			LTIB4			LLMAL			LHEE			LMT1			LMT2			RTHI			RTHI2			RTHI3			RTHI4			RLFC			RTIB1			RTIB2			RTIB3			RTIB4			RLMAL			RHEE			RMT1			RMT2			RMT5		
		X1	Y1	Z1	X2	Y2	Z2	X3	Y3	Z3	X4	Y4	Z4	X5	Y5	Z5	X6	Y6	Z6	X7	Y7	Z7	X8	Y8	Z8	X9	Y9	Z9	X10	Y10	Z10	X11	Y11	Z11	X12	Y12	Z12	X13	Y13	Z13	X14	Y14	Z14	X15	Y15	Z15	X16	Y16	Z16	X17	Y17	Z17	X18	Y18	Z18	X19	Y19	Z19	X20	Y20	Z20	X21	Y21	Z21	X22	Y22	Z22	X23	Y23	Z23	X24	Y24	Z24	X25	Y25	Z25	X26	Y26	Z26	X27	Y27	Z27	X28	Y28	Z28	X29	Y29	Z29	X30	Y30	Z30	X31	Y31	Z31	X32	Y32	Z32	X33	Y33	Z33	X34	Y34	Z34	X35	Y35	Z35	X36	Y36	Z36	X37	Y37	Z37	X38	Y38	Z38	X39	Y39	Z39	X40	Y40	Z40	X41	Y41	Z41	X42	Y42	Z42	X43	Y43	Z43	X44	Y44	Z44	X45	Y45	Z45	X46	Y46	Z46	X47	Y47	Z47	X48	Y48	Z48	X49	Y49	Z49	X50	Y50	Z50	X51	Y51	Z51	X52	Y52	Z52	X53	Y53	Z53	X54	Y54	Z54	

570	2.845000	-877.093910	1458.437013	562.655598	-1034.489954	1476.806143	444.204572	-1024.148291	1449.038693	569.486311	-1099.620828	1346.843877	508.348287	-1298.415067	1056.809295	508.181715	-1014.419713	1217.880753	479.370463	-1056.747785	1307.438207	363.945589	-1166.825186	1202.359698	238.594364	-1136.882808	1169.086827	222.158405	-1190.199969	1151.671327	198.378698	-1224.226245	1046.712314	143.922424	-1242.300168	1003.995268	202.972036	-979.096633	954.945644	166.527370	-997.591071	901.512095	119.281479	-922.853427	973.293542	123.320134	-1015.033522	1268.878718	648.470689	-1128.302789	1185.791061	765.251424	-1126.586229	1140.086845	767.840825	-1176.304544	1152.994839	797.701126	-1274.663138	1054.532513	838.895806	-1321.455404	1058.107170	780.568189	-1156.994252	836.262309	756.021601	-1206.247020	810.834915	791.132673	-1111.709375	788.782010	801.777159	-1187.485967	832.875797	600.187086	-1333.499169	960.407668	486.361872	-1333.769423	935.281648	451.993038	-1345.050104	923.191837	508.021313	-1057.914657	738.855534	259.885263	-981.964217	699.936764	263.520190	-957.711639	712.202649	303.718752	-967.715552	643.683168	241.187781	-804.089379	406.890664	217.498538	-836.692766	373.534534	142.417524	-802.617994	372.761636	169.615366	-776.856792	290.123048	169.570344	-778.419276	145.547877	87.450706	-855.045425	92.466657	97.613204	-643.856879	68.801178	165.587053	-631.551447	77.236996	121.617382	-1163.550362	584.642768	623.478057	-1108.131087	551.602127	630.005391	-1077.161845	566.487764	632.785949	-1093.446101	473.635438	601.105381	-1040.455523	393.656873	566.876160	-1157.700622	314.639801	423.635055	-1261.763456	343.751022	429.552910	-1240.644489	313.860251	406.989105	-1266.092493	306.136043	356.936692	-1375.744850	325.679901	348.849328	-1432.554145	386.166358	292.020416	-1310.441804	196.622047	251.573804	-1322.290268	185.391439	288.827787	-1380.044110	195.166361	330.895113	
571	2.850000	-851.176482	1451.055727	564.855091	-1007.362457	1469.561687	444.854655	-998.468957	1441.748614	570.583806	-1073.150152	1341.098706	509.476118	-1275.473729	1052.926426	509.922646	-989.590149	1210.900798	480.772398	-1033.072527	1301.151285	365.732695	-1139.406582	1192.394925	240.050910	-1107.710434	1160.663636	223.781798	-1159.871732	1140.795505	199.395766	-1187.841550	1034.221180	144.733582	-1205.774601	990.821388	203.562869	-939.494416	955.534671	177.259505	-953.260858	901.413007	129.255193	-882.336278	976.825308	136.161485	-988.630290	1261.513440	649.764216	-1102.804129	1180.200838	767.282417	-1102.443944	1134.494729	769.489131	-1151.479945	1148.235275	799.855560	-1251.653532	1052.833026	842.154152	-1298.934002	1058.501146	784.564433	-1151.166176	823.854758	761.854292	-1203.005014	802.921340	798.807968	-1109.524587	773.085135	808.271398	-1165.599167	828.312414	603.101583	-1311.178246	956.359433	488.113214	-1311.337087	931.255351	453.696169	-1322.869670	919.186949	509.725821	-1035.566468	734.671449	262.545878	-959.430517	696.318103	266.577093	-935.145010	709.285225	306.587645	-944.668330	640.053800	244.754424	-785.491372	399.867413	218.989308	-819.597484	368.453963	143.915084	-785.760406	366.040872	171.417758	-762.845586	282.967745	170.060944	-770.124828	139.815995	86.858970	-847.924385	88.192011	95.795636	-636.922740	63.355551	164.606177	-624.141063	71.364423	120.486550	-1139.442657	582.460595	628.448833	-1083.588147	550.477284	636.315533	-1052.925436	566.016273	639.402318	-1066.837507	472.741423	608.381475	-1011.889861	393.817361	575.183953	-1126.951853	317.203255	429.334312	-1231.137391	346.669363	434.819065	-1209.769139	316.840670	411.823356	-1234.581298	309.931983	361.270071	-1344.035404	329.979244	352.102940	-1400.102102	390.750153	294.616806	-1277.186154	201.692415	254.758377	-1289.489515	190.174082	291.726277	-1347.800773	199.638379	333.044576	
572	2.855000	-825.620186	1443.597176	567.483978	-980.354025	1462.207000	445.690994	-973.073067	1434.410638	571.786739	-1046.918158	1335.233272	510.583117	-1252.655082	1048.810001	511.696729	-964.923627	1203.747360	482.440693	-1009.097502	1294.467498	367.395531	-1111.282165	1181.782790	241.323641	-1077.833174	1151.651575	225.446492	-1128.622093	1129.203553	200.428809	-1150.281179	1021.226774	145.994538	-1168.101017	977.277500	204.659481	-899.890495	955.824393	188.956715	-908.833312	901.186999	140.403473	-842.008648	980.043935	150.037747	-962.644168	1254.010738	651.341710	-1077.708309	1173.796617	769.288582	-1078.805236	1128.083133	770.634823	-1127.045413	1142.377258	801.768385	-1228.954881	1050.554208	845.046409	-1276.515229	1058.272936	788.155042	-1146.194752	812.384654	767.961970	-1200.051842	796.032383	806.662586	-1108.103778	758.791153	814.849786	-1143.629799	823.486966	606.010051	-1289.005696	951.980163	490.027491	-1289.067396	926.901212	455.564942	-1300.754095	914.835078	511.617093	-1013.642572	730.489456	265.093051	-937.369652	692.618586	269.225905	-912.868984	706.372089	308.884125	-922.236906	636.304894	247.976847	-767.600760	392.279117	220.125121	-803.483164	363.125351	145.147739	-769.973730	358.810407	172.981746	-750.342862	275.361552	170.113674	-764.163275	134.033002	85.821102	-843.010098	83.623659	93.448773	-632.175445	58.969402	163.291951	-618.900625	66.481400	119.008115	-1115.107371	580.244213	633.478751	-1058.843166	549.394342	642.717436	-1028.512428	565.614360	646.131802	-1039.892122	471.928572	615.644834	-982.991389	394.241228	583.634504	-1095.395580	319.528595	435.081134	-1199.858644	348.966741	440.115877	-1177.979773	319.189032	416.581452	-1202.077450	312.991597	365.566813	-1311.419407	333.103507	355.192462	-1366.876909	393.936621	296.969938	-1242.377901	205.829695	257.957461	-1255.147661	193.979377	294.631258	-1314.114904	202.891481	335.077970	
573	2.860000	-800.435628	1436.100679	570.558007	-953.469491	1454.782953	446.730779	-947.979866	1427.069097	573.123332	-1020.966118	1329.268353	511.703989	-1229.980420	1044.540616	513.596137	-940.439993	1196.463680	484.403209	-984.819812	1287.424084	368.947281	-1082.387280	1170.588431	242.456873	-1047.216691	1142.099079	227.219126	-1096.404321	1116.988592	201.555188	-1111.568600	1007.857870	147.816117	-1129.308534	963.493675	206.367811	-860.367439	955.861584	201.575253	-864.433785	900.888436	152.698950	-801.975462	982.981393	164.879059	-937.066077	1246.436771	653.228746	-1053.020424	1166.647891	771.278724	-1055.690883	1120.945440	771.270415	-1103.002533	1135.519477	803.476831	-1206.601024	1047.764704	847.591982	-1254.261611	1057.474247	791.359906	-1141.870867	802.032852	774.311863	-1197.152030	790.262770	814.606674	-1107.186415	746.064370	821.488392	-1121.550481	818.458892	608.875641	-1267.006276	947.322994	492.181548	-1266.989877	922.287193	457.666032	-1278.721233	910.180085	513.755602	-992.197800	726.248338	267.412465	-915.859522	688.703312	271.304847	-890.938391	703.256463	310.441765	-900.569859	632.289276	250.674761	-750.435214	384.312142	220.831110	-788.345351	357.672805	146.094756	-755.233234	351.263866	174.224526	-739.266117	267.525149	169.737221	-760.245061	128.412762	84.414223	-839.978692	78.886150	90.697978	-629.336722	55.720154	161.770931	-615.563722	62.707687	117.335531	-1090.591683	578.035592	638.561932	-1033.935051	548.406261	649.216775	-1003.962971	565.330059	652.981193	-1012.643262	471.238289	622.850397	-953.813370	394.982565	592.215216	-1063.085819	321.628213	440.882617	-1167.990293	350.615099	445.405038	-1145.346554	320.918273	421.317098	-1168.632162	315.287011	369.859394	-1277.930732	335.005129	358.111890	-1332.930779	395.670022	299.090534	-1206.067234	208.997677	261.223155	-1219.322943	196.772876	297.589547	-1279.025792	204.898438	337.058020	
574	2.865000	-775.626298	1428.614387	574.082291	-926.720150	1447.337013	447.999740	-923.201101	1419.770244	574.626573	-995.329880	1323.228817	512.880430	-1207.463199	1040.209653	515.716825	-916.153413	1189.093803	486.682384	-960.241837	1280.067220	370.422603	-1052.656416	1158.905112	243.518800	-1015.828405	1132.080554	229.185761	-1063.175259	1104.276920	202.872685	-1071.744131	994.261175	150.312404	-1089.441599	949.615901	208.792406	-821.005225	955.707432	215.056780	-820.187396	900.582097	166.099247	-762.334944	985.683149	180.600425	-911.878194	1238.854184	655.448746	-1028.747167	1158.864581	773.264140	-1033.112681	1113.226514	771.436147	-1079.346118	1127.821894	805.041940	-1184.620717	1044.550884	849.819172	-1232.232638	1056.182611	794.207493	-1137.968948	792.934903	780.848020	-1194.093628	785.671610	822.551941	-1106.538126	735.019702	828.191057	-1099.339509	813.297638	611.669410	-1245.195772	942.456595	494.664077	-1245.132535	917.496443	460.079083	-1256.784715	905.284045	516.214280	-971.288220	721.857418	269.403160	-894.969948	684.440679	272.703422	-869.403071	699.774486	311.126230	-879.771999	627.860637	252.755327	-734.007985	376.195953	221.071070	-774.135279	352.240178	146.748475	-741.455432	343.643901	175.058437	-729.452385	259.710246	168.983389	-757.950668	123.156075	82.758205	-838.428581	74.178787	87.725196	-628.040850	53.530390	160.177271	-613.773198	59.993801	115.622574	-1065.944003	575.893398	643.701281	-1008.906030	547.577522	655.821594	-979.323906	565.220733	659.950183	-985.152871	470.738468	629.994571	-924.415617	396.099632	600.909729	-1030.083897	323.522374	446.752033	-1135.584765	351.596724	450.640158	-1111.946220	322.058953	426.090594	-1134.294518	316.799182	374.179084	-1243.601161	335.658662	360.867470	-1298.300730	395.905907	300.981690	-1168.309536	211.169236	264.624286	-1182.075959	198.539671	300.671625	-1242.571978	205.656491	339.067105	
575	2.870000	-751.189024	1421.193538	578.051833	-900.122464	1439.923240	449.529412	-898.738376	1412.563108	576.330087	-970.036385	1317.146605	514.161215	-1185.108270	1035.911959	518.150086	-892.072457	1181.684817	489.296928	-935.368972	1272.451931	371.877728	-1022.031609	1146.858983	244.603000	-983.645137	1121.702482	231.450561	-1028.904372	1091.229792	204.499094	-1030.870877	980.599667	153.597161	-1048.565782	935.802690	212.033638	-781.882736	955.439208	229.331192	-776.217211	900.342370	180.550295	-723.175491	988.209052	197.105545	-887.056584	1231.322720	658.021833	-1004.899550	1150.601170	775.262716	-1011.070888	1105.119248	771.226833	-1056.070235	1119.501289	806.544920	-1163.035494	1041.015833	851.766935	-1210.478839	1054.499008	796.735922	-1134.261388	785.175114	787.493319	-1190.695294	782.282727	830.409389	-1105.941706	725.718938	834.957159	-1076.982316	808.081518	614.375038	-1223.578638	937.464951	497.566773	-1223.519220	912.625189	462.891749	-1234.953369	900.227762	519.074137	-950.961360	717.222502	271.007752	-874.754300	679.729134	273.391152	-848.309130	695.824539	310.871601	-859.894932	622.905361	254.222758	-718.329436	368.167341	220.867395	-760.756566	346.967663	147.116342	-728.497687	336.204576	175.408907	-720.674892	252.165725	167.946239	-756.789613	118.429226	80.994043	-837.931680	69.742642	84.740906	-627.864902	52.232833	158.618942	-613.119448	58.184233	113.985476	-1041.209327	573.889595	648.911385	-983.802039	546.975855	662.531299	-954.648864	565.346275	667.025750	-957.511281	470.519679	637.118902	-894.863100	397.651305	609.697685	-996.460045	325.240602	452.705254	-1102.674623	351.910886	455.784924	-1077.853695	322.651341	430.957601	-1099.110217	317.519851	378.556370	-1208.463700	335.062440	363.485097	-1263.007828	394.615032	302.646360	-1129.166674	212.335434	268.245995	-1143.470104	199.285910	303.965358	-1204.792661	205.187267	341.203235	
